<?xml version="1.0" standalone="no"?>
<!DOCTYPE svg PUBLIC "-//W3C//DTD SVG 20010904//EN"
 "http://www.w3.org/TR/2001/REC-SVG-20010904/DTD/svg10.dtd">
<svg version="1.0" xmlns="http://www.w3.org/2000/svg"
 width="512.000000pt" height="512.000000pt" viewBox="0 0 512.000000 512.000000"
 preserveAspectRatio="xMidYMid meet">

<g transform="translate(0.000000,512.000000) scale(0.100000,-0.100000)"
fill="blue" stroke="none">
<path d="M2514 5102 c-32 -21 -34 -51 -34 -586 0 -515 -1 -536 -19 -536 -10 0
-46 -3 -80 -6 l-61 -7 0 436 0 436 -26 20 c-33 26 -65 27 -95 2 l-24 -19 -5
-457 -5 -457 -70 -24 c-38 -13 -73 -24 -77 -24 -5 0 -8 119 -8 264 0 237 -2
266 -17 284 -33 38 -107 29 -123 -14 -6 -14 -10 -155 -10 -319 l0 -294 -76
-51 c-42 -27 -78 -50 -80 -50 -2 0 -4 207 -4 459 l0 460 -26 20 c-35 28 -69
26 -99 -4 l-25 -24 0 -527 0 -527 -48 -51 c-26 -28 -62 -69 -79 -91 l-32 -40
-1 293 c0 278 -1 293 -20 312 -12 12 -33 20 -55 20 -22 0 -43 -8 -55 -20 -19
-19 -20 -33 -20 -456 0 -437 0 -437 -24 -504 -54 -148 -71 -260 -71 -460 0
-199 15 -299 70 -461 l25 -73 0 -431 c0 -420 1 -432 20 -453 27 -29 83 -29
110 -2 19 19 20 33 20 479 l0 459 -25 83 c-59 196 -67 235 -72 355 -12 268 63
529 217 760 65 98 241 273 337 337 152 100 328 172 497 202 115 20 317 19 436
-1 490 -84 893 -457 1015 -939 166 -652 -203 -1318 -845 -1528 -171 -56 -424
-73 -603 -42 -229 40 -458 150 -629 301 -40 36 -56 44 -88 44 -30 0 -43 -6
-59 -26 -21 -26 -21 -35 -21 -571 l0 -544 25 -24 c30 -31 73 -32 103 -5 l22
21 0 460 c0 253 3 459 8 457 4 -2 40 -25 79 -51 l73 -48 0 -295 c0 -346 2
-354 81 -354 68 0 69 3 69 303 0 147 3 267 8 267 4 0 39 -11 77 -24 l70 -24 5
-457 5 -457 24 -19 c30 -25 72 -24 99 1 22 21 22 21 22 457 l0 436 61 -7 c34
-3 70 -6 80 -6 18 0 19 -21 19 -539 0 -529 0 -539 21 -565 16 -20 29 -26 58
-26 75 0 71 -30 71 583 l0 547 24 0 c12 0 51 3 85 6 l61 7 0 -436 0 -436 26
-20 c35 -28 69 -26 99 4 l25 24 0 449 0 449 74 27 c41 14 77 26 80 26 3 0 6
-118 6 -263 0 -299 2 -307 69 -307 20 0 46 6 57 14 18 14 19 32 24 325 l5 310
75 50 75 49 3 -458 2 -459 26 -20 c35 -28 69 -26 99 4 l25 24 0 524 0 524 26
24 c14 13 49 54 77 92 l52 67 5 -296 c5 -278 6 -296 24 -310 29 -21 82 -18
106 6 19 19 20 33 20 447 l0 426 34 106 c51 156 69 272 69 441 0 169 -18 285
-69 441 l-34 106 0 425 c0 413 -1 425 -20 446 -26 27 -91 30 -111 5 -11 -12
-15 -81 -19 -310 l-5 -293 -52 67 c-28 38 -63 79 -77 92 l-26 24 0 524 0 524
-25 24 c-28 28 -70 32 -100 9 -19 -14 -20 -30 -25 -478 l-5 -464 -77 51 -78
50 0 293 c0 203 -4 301 -12 319 -18 40 -84 50 -120 18 -16 -15 -18 -42 -18
-285 0 -147 -3 -268 -6 -268 -3 0 -39 12 -80 26 l-74 27 0 449 0 449 -25 24
c-30 31 -73 32 -103 5 -22 -21 -22 -21 -22 -457 l0 -436 -61 7 c-34 3 -73 6
-85 6 l-24 0 0 543 c0 609 2 587 -68 587 -20 0 -42 -4 -48 -8z"/>
<path d="M951 3674 c-21 -27 -21 -29 -21 -1116 l0 -1089 25 -24 c30 -31 77
-33 105 -5 20 20 20 33 20 1118 0 1091 0 1098 -20 1120 -30 32 -82 30 -109 -4z"/>
<path d="M4060 3678 c-20 -22 -20 -29 -20 -1118 l0 -1097 23 -21 c33 -31 80
-29 106 4 21 27 21 29 21 1114 0 1085 0 1087 -21 1114 -27 34 -79 36 -109 4z"/>
<path d="M3021 3354 c-18 -23 -21 -41 -21 -138 l0 -112 -277 -98 c-153 -55
-300 -107 -326 -118 l-48 -18 3 52 3 51 243 88 c134 48 252 95 263 105 41 37
8 124 -48 124 -41 0 -577 -199 -595 -221 -16 -19 -18 -54 -18 -391 0 -318 -2
-369 -14 -365 -113 44 -211 27 -296 -50 -151 -135 -105 -386 83 -458 57 -21
165 -17 218 9 51 24 108 82 133 136 20 43 21 63 24 405 l3 360 310 110 c171
61 317 111 325 113 12 3 14 -26 14 -168 0 -160 -1 -172 -17 -164 -32 13 -160
16 -196 5 -57 -19 -120 -74 -152 -132 -26 -46 -30 -64 -30 -129 0 -65 4 -83
30 -130 69 -126 219 -179 351 -124 47 20 111 79 137 128 22 40 22 48 25 578 3
529 2 538 -18 558 -30 30 -83 27 -109 -6z m-75 -900 c80 -53 67 -183 -23 -220
-81 -34 -173 28 -173 117 0 34 28 83 58 101 35 22 105 23 138 2z m-803 -289
c65 -42 71 -133 12 -192 -29 -29 -39 -33 -85 -33 -47 0 -56 4 -86 36 -102 108
35 271 159 189z"/>
<path d="M331 3334 c-21 -26 -21 -33 -21 -776 l0 -749 25 -24 c31 -32 74 -33
103 -2 l22 23 0 755 0 756 -23 21 c-33 31 -80 29 -106 -4z"/>
<path d="M4682 3337 l-22 -23 0 -755 0 -756 23 -21 c31 -29 77 -29 105 1 l22
23 0 751 c0 744 0 751 -21 777 -27 34 -77 36 -107 3z"/>
<path d="M645 3175 l-25 -24 0 -589 c0 -656 -3 -625 67 -638 26 -5 37 -1 57
19 l26 26 0 591 0 591 -25 24 c-13 14 -36 25 -50 25 -14 0 -37 -11 -50 -25z"/>
<path d="M4375 3175 l-25 -24 0 -591 0 -591 25 -24 c13 -14 36 -25 50 -25 14
0 37 11 50 25 l25 24 0 591 0 591 -25 24 c-13 14 -36 25 -50 25 -14 0 -37 -11
-50 -25z"/>
<path d="M51 2868 c-49 -18 -50 -25 -51 -309 0 -265 0 -266 23 -287 30 -28 80
-29 107 -2 19 19 20 33 20 288 -1 203 -4 271 -14 284 -19 25 -57 37 -85 26z"/>
<path d="M5021 2868 c-49 -18 -50 -25 -51 -309 0 -265 0 -266 23 -287 30 -28
80 -29 107 -2 19 19 20 33 20 288 -1 203 -4 271 -14 284 -19 25 -57 37 -85 26z"/>
</g>
</svg>
